<svg xmlns="http://www.w3.org/2000/svg" id="_レイヤー_1" viewBox="0 0 68.03 68.03"><defs><style>.cls-1{fill:#06bc64}</style></defs><path d="M41.05 47.59c-.32.46-.57.96-.75 1.5-.21.61-.32 1.26-.32 1.94s.11 1.33.32 1.94c.18.54.43 1.04.75 1.5l-.75 2.23H27.74l-.04-3.62s.03-.08.04-.12c.21-.6.32-1.25.32-1.93s-.11-1.33-.32-1.93c-.01-.04-.03-.08-.04-.12l.04-3.62H40.3l.75 2.23ZM25.11 22.2c-.37.23-.78.42-1.2.56-.61.21-1.26.32-1.94.32s-1.34-.11-1.95-.33c-.42-.13-.82-.32-1.19-.55l-2.53.55v22.52l3.35.13c.12-.05.24-.1.36-.13.61-.22 1.27-.33 1.96-.33s1.34.11 1.95.32l.37.14 3.35-.14v-22.5l-2.53-.56Z" class="cls-1"/><path d="M23.91 22.76c.42-.14.83-.33 1.2-.56 1.77-1.06 2.95-3 2.95-5.2 0-3.36-2.73-6.09-6.09-6.09s-6.08 2.73-6.08 6.09c0 2.2 1.18 4.14 2.94 5.2.37.23.77.42 1.19.55H16.3A8.062 8.062 0 0 1 13.89 17c0-4.46 3.62-8.09 8.08-8.09s8.09 3.63 8.09 8.09c0 2.25-.93 4.29-2.42 5.76h-3.73ZM46.07 42.94a8.1 8.1 0 0 0-5.77 2.42v3.73c.18-.54.43-1.04.75-1.5a6.073 6.073 0 0 1 5.02-2.65c3.35 0 6.08 2.73 6.08 6.09s-2.73 6.09-6.08 6.09c-2.08 0-3.93-1.05-5.02-2.65-.32-.46-.57-.96-.75-1.5v3.73a8.1 8.1 0 0 0 5.77 2.42c4.46 0 8.08-3.63 8.08-8.09s-3.62-8.09-8.08-8.09ZM27.64 45.26h-3.72l.37.14a6.11 6.11 0 0 1 3.41 3.58c.01.04.03.08.04.12v-3.74s-.07-.06-.1-.1Zm.06 7.82a6.093 6.093 0 0 1-5.73 4.04c-3.35 0-6.08-2.73-6.08-6.09 0-2.54 1.56-4.72 3.76-5.63.12-.05.24-.1.36-.13H16.3a8.068 8.068 0 0 0-2.41 5.76c0 4.46 3.62 8.09 8.08 8.09a8.1 8.1 0 0 0 5.77-2.42v-3.74s-.03.08-.04.12Z" class="cls-1"/></svg>