<?xml version="1.0" encoding="UTF-8"?><svg id="_レイヤー_1" xmlns="http://www.w3.org/2000/svg" viewBox="0 0 68.03 68.03"><defs><style>.cls-1{fill:#06bc64;}</style></defs><path class="cls-1" d="m41.05,47.59c-.32.46-.57.96-.75,1.5-.21.61-.32,1.26-.32,1.94s.11,1.33.32,1.94c.18.54.43,1.04.75,1.5l-.75,2.23h-12.56l-.04-3.62s.03-.08.04-.12c.21-.6.32-1.25.32-1.93s-.11-1.33-.32-1.93c-.01-.04-.03-.08-.04-.12l.04-3.62h12.56l.75,2.23Z"/><path class="cls-1" d="m25.11,22.2c-.37.23-.78.42-1.2.56-.61.21-1.26.32-1.94.32s-1.34-.11-1.95-.33c-.42-.13-.82-.32-1.19-.55l-2.53.55v22.52l3.35.13c.12-.05.24-.1.36-.13.61-.22,1.27-.33,1.96-.33s1.34.11,1.95.32l.37.14,3.35-.14v-22.5l-2.53-.56Z"/><path class="cls-1" d="m23.91,22.76c.42-.14.83-.33,1.2-.56,1.77-1.06,2.95-3,2.95-5.2,0-3.36-2.73-6.09-6.09-6.09s-6.08,2.73-6.08,6.09c0,2.2,1.18,4.14,2.94,5.2.37.23.77.42,1.19.55h-3.72c-1.49-1.47-2.41-3.51-2.41-5.75,0-4.46,3.62-8.09,8.08-8.09s8.09,3.63,8.09,8.09c0,2.25-.93,4.29-2.42,5.76h-3.73Z"/><path class="cls-1" d="m46.07,42.94c-2.25,0-4.3.93-5.77,2.42v3.73c.18-.54.43-1.04.75-1.5,1.09-1.6,2.94-2.65,5.02-2.65,3.35,0,6.08,2.73,6.08,6.09s-2.73,6.09-6.08,6.09c-2.08,0-3.93-1.05-5.02-2.65-.32-.46-.57-.96-.75-1.5v3.73c1.47,1.49,3.52,2.42,5.77,2.42,4.46,0,8.08-3.63,8.08-8.09s-3.62-8.09-8.08-8.09Z"/><path class="cls-1" d="m27.64,45.26h-3.72l.37.14c1.58.65,2.83,1.96,3.41,3.58.01.04.03.08.04.12v-3.74s-.07-.06-.1-.1Zm.06,7.82c-.84,2.35-3.09,4.04-5.73,4.04-3.35,0-6.08-2.73-6.08-6.09,0-2.54,1.56-4.72,3.76-5.63.12-.05.24-.1.36-.13h-3.71c-1.49,1.47-2.41,3.51-2.41,5.76,0,4.46,3.62,8.09,8.08,8.09,2.25,0,4.3-.93,5.77-2.42v-3.74s-.03.08-.04.12Z"/></svg>